<svg width="33" height="33" viewBox="0 0 33 33" fill="none" xmlns="http://www.w3.org/2000/svg">
<path fill-rule="evenodd" clip-rule="evenodd" d="M22.4162 3.78098H10.5197C6.37821 3.78098 3.78084 6.71523 3.78084 10.8677V22.0685C3.78084 26.221 6.36721 29.1552 10.5197 29.1552H22.4093C26.5687 29.1552 29.1537 26.221 29.1537 22.0685V10.8677C29.1592 6.71523 26.5728 3.78098 22.4162 3.78098Z" stroke="#EEEEEE" stroke-width="1.5" stroke-linecap="round" stroke-linejoin="round"/>
<path fill-rule="evenodd" clip-rule="evenodd" d="M14.7168 12.0794C14.7168 13.4819 13.581 14.6176 12.1785 14.6176C10.7774 14.6176 9.64027 13.4819 9.64027 12.0794C9.64027 10.6769 10.7774 9.54112 12.1785 9.54112C13.5796 9.5425 14.7154 10.6782 14.7168 12.0794Z" stroke="#EEEEEE" stroke-width="1.5" stroke-linecap="round" stroke-linejoin="round"/>
<path d="M29.1596 20.5576C27.8905 19.2514 25.4499 16.6127 22.7961 16.6127C20.141 16.6127 18.6106 22.4331 16.0572 22.4331C13.5039 22.4331 11.1842 19.8014 9.13825 21.4885C7.09225 23.1742 5.15625 26.6214 5.15625 26.6214" stroke="#EEEEEE" stroke-width="1.5" stroke-linecap="round" stroke-linejoin="round"/>
</svg>
